<mxfile host="app.diagrams.net" modified="2023-05-16T12:43:25.742Z" agent="Mozilla/5.0 (Macintosh; Intel Mac OS X 10_15_7) AppleWebKit/537.36 (KHTML, like Gecko) Chrome/112.0.0.0 Safari/537.36" etag="oCoSWn4T__h2wEsadYsu" version="21.3.2" type="google" pages="2">
  <diagram name="u-net" id="D9zF0W6Lz9JKnGYVxGya">
    <mxGraphModel grid="1" page="1" gridSize="10" guides="1" tooltips="1" connect="1" arrows="1" fold="1" pageScale="1" pageWidth="827" pageHeight="1169" math="1" shadow="0">
      <root>
        <mxCell id="0" />
        <mxCell id="1" parent="0" />
        <mxCell id="DNla2n4Dcu0zC7mmsUXs-33" style="edgeStyle=orthogonalEdgeStyle;rounded=0;orthogonalLoop=1;jettySize=auto;html=1;entryX=0;entryY=0.5;entryDx=0;entryDy=0;strokeWidth=9;endSize=1;fillColor=#dae8fc;strokeColor=#6c8ebf;exitX=1;exitY=0.5;exitDx=0;exitDy=0;" edge="1" parent="1" source="DNla2n4Dcu0zC7mmsUXs-1" target="DNla2n4Dcu0zC7mmsUXs-2">
          <mxGeometry relative="1" as="geometry">
            <mxPoint x="85" y="190" as="sourcePoint" />
          </mxGeometry>
        </mxCell>
        <mxCell id="DNla2n4Dcu0zC7mmsUXs-1" value="" style="rounded=0;whiteSpace=wrap;html=1;fillColor=#dae8fc;strokeColor=#6c8ebf;" vertex="1" parent="1">
          <mxGeometry x="80" y="30" width="10" height="330" as="geometry" />
        </mxCell>
        <mxCell id="DNla2n4Dcu0zC7mmsUXs-2" value="" style="rounded=0;whiteSpace=wrap;html=1;fillColor=#dae8fc;strokeColor=#6c8ebf;" vertex="1" parent="1">
          <mxGeometry x="130" y="30" width="30" height="330" as="geometry" />
        </mxCell>
        <mxCell id="DNla2n4Dcu0zC7mmsUXs-35" style="edgeStyle=orthogonalEdgeStyle;rounded=0;orthogonalLoop=1;jettySize=auto;html=1;exitX=0.5;exitY=1;exitDx=0;exitDy=0;entryX=0.5;entryY=0;entryDx=0;entryDy=0;strokeWidth=9;fillColor=#f8cecc;strokeColor=#b85450;endSize=1;" edge="1" parent="1" source="DNla2n4Dcu0zC7mmsUXs-3" target="DNla2n4Dcu0zC7mmsUXs-5">
          <mxGeometry relative="1" as="geometry" />
        </mxCell>
        <mxCell id="DNla2n4Dcu0zC7mmsUXs-3" value="" style="rounded=0;whiteSpace=wrap;html=1;fillColor=#dae8fc;strokeColor=#6c8ebf;" vertex="1" parent="1">
          <mxGeometry x="200" y="30" width="30" height="330" as="geometry" />
        </mxCell>
        <mxCell id="DNla2n4Dcu0zC7mmsUXs-4" value="" style="rounded=0;whiteSpace=wrap;html=1;dashed=1;strokeWidth=3;fillColor=#dae8fc;strokeColor=#000000;" vertex="1" parent="1">
          <mxGeometry x="200" y="75" width="30" height="240" as="geometry" />
        </mxCell>
        <mxCell id="DNla2n4Dcu0zC7mmsUXs-36" style="edgeStyle=orthogonalEdgeStyle;rounded=0;orthogonalLoop=1;jettySize=auto;html=1;exitX=1;exitY=0.5;exitDx=0;exitDy=0;entryX=0;entryY=0.5;entryDx=0;entryDy=0;fillColor=#dae8fc;strokeColor=#6c8ebf;strokeWidth=9;endSize=1;" edge="1" parent="1" source="DNla2n4Dcu0zC7mmsUXs-5" target="DNla2n4Dcu0zC7mmsUXs-6">
          <mxGeometry relative="1" as="geometry" />
        </mxCell>
        <mxCell id="DNla2n4Dcu0zC7mmsUXs-5" value="" style="rounded=0;whiteSpace=wrap;html=1;strokeWidth=1;fillColor=#dae8fc;strokeColor=#6c8ebf;" vertex="1" parent="1">
          <mxGeometry x="200" y="400" width="30" height="280" as="geometry" />
        </mxCell>
        <mxCell id="DNla2n4Dcu0zC7mmsUXs-37" style="edgeStyle=orthogonalEdgeStyle;rounded=0;orthogonalLoop=1;jettySize=auto;html=1;exitX=1;exitY=0.5;exitDx=0;exitDy=0;entryX=0;entryY=0.5;entryDx=0;entryDy=0;fillColor=#dae8fc;strokeColor=#6c8ebf;strokeWidth=9;endSize=1;" edge="1" parent="1" source="DNla2n4Dcu0zC7mmsUXs-6" target="DNla2n4Dcu0zC7mmsUXs-7">
          <mxGeometry relative="1" as="geometry" />
        </mxCell>
        <mxCell id="DNla2n4Dcu0zC7mmsUXs-6" value="" style="rounded=0;whiteSpace=wrap;html=1;strokeWidth=1;fillColor=#dae8fc;strokeColor=#6c8ebf;" vertex="1" parent="1">
          <mxGeometry x="270" y="400" width="60" height="280" as="geometry" />
        </mxCell>
        <mxCell id="DNla2n4Dcu0zC7mmsUXs-53" style="edgeStyle=orthogonalEdgeStyle;rounded=0;orthogonalLoop=1;jettySize=auto;html=1;exitX=0.5;exitY=1;exitDx=0;exitDy=0;entryX=0.5;entryY=0;entryDx=0;entryDy=0;fillColor=#f8cecc;strokeColor=#b85450;strokeWidth=9;endSize=1;" edge="1" parent="1" source="DNla2n4Dcu0zC7mmsUXs-7" target="DNla2n4Dcu0zC7mmsUXs-9">
          <mxGeometry relative="1" as="geometry" />
        </mxCell>
        <mxCell id="DNla2n4Dcu0zC7mmsUXs-7" value="" style="rounded=0;whiteSpace=wrap;html=1;strokeWidth=1;fillColor=#dae8fc;strokeColor=#6c8ebf;" vertex="1" parent="1">
          <mxGeometry x="370" y="400" width="60" height="280" as="geometry" />
        </mxCell>
        <mxCell id="DNla2n4Dcu0zC7mmsUXs-8" value="" style="rounded=0;whiteSpace=wrap;html=1;dashed=1;strokeWidth=3;fillColor=#dae8fc;strokeColor=#000000;" vertex="1" parent="1">
          <mxGeometry x="370" y="440" width="60" height="200" as="geometry" />
        </mxCell>
        <mxCell id="DNla2n4Dcu0zC7mmsUXs-38" style="edgeStyle=orthogonalEdgeStyle;rounded=0;orthogonalLoop=1;jettySize=auto;html=1;exitX=1;exitY=0.5;exitDx=0;exitDy=0;entryX=0;entryY=0.5;entryDx=0;entryDy=0;fillColor=#dae8fc;strokeColor=#6c8ebf;strokeWidth=9;endSize=1;" edge="1" parent="1" source="DNla2n4Dcu0zC7mmsUXs-9" target="DNla2n4Dcu0zC7mmsUXs-10">
          <mxGeometry relative="1" as="geometry" />
        </mxCell>
        <mxCell id="DNla2n4Dcu0zC7mmsUXs-9" value="" style="rounded=0;whiteSpace=wrap;html=1;strokeWidth=1;fillColor=#dae8fc;strokeColor=#6c8ebf;" vertex="1" parent="1">
          <mxGeometry x="370" y="720" width="60" height="200" as="geometry" />
        </mxCell>
        <mxCell id="DNla2n4Dcu0zC7mmsUXs-39" style="edgeStyle=orthogonalEdgeStyle;rounded=0;orthogonalLoop=1;jettySize=auto;html=1;exitX=1;exitY=0.5;exitDx=0;exitDy=0;fillColor=#dae8fc;strokeColor=#6c8ebf;strokeWidth=9;endSize=1;" edge="1" parent="1" source="DNla2n4Dcu0zC7mmsUXs-10" target="DNla2n4Dcu0zC7mmsUXs-11">
          <mxGeometry relative="1" as="geometry" />
        </mxCell>
        <mxCell id="DNla2n4Dcu0zC7mmsUXs-10" value="" style="rounded=0;whiteSpace=wrap;html=1;strokeWidth=1;fillColor=#dae8fc;strokeColor=#6c8ebf;" vertex="1" parent="1">
          <mxGeometry x="470" y="720" width="80" height="200" as="geometry" />
        </mxCell>
        <mxCell id="DNla2n4Dcu0zC7mmsUXs-54" style="edgeStyle=orthogonalEdgeStyle;rounded=0;orthogonalLoop=1;jettySize=auto;html=1;exitX=0.5;exitY=1;exitDx=0;exitDy=0;entryX=0.5;entryY=0;entryDx=0;entryDy=0;fillColor=#f8cecc;strokeColor=#b85450;strokeWidth=9;endSize=1;" edge="1" parent="1" source="DNla2n4Dcu0zC7mmsUXs-11" target="DNla2n4Dcu0zC7mmsUXs-13">
          <mxGeometry relative="1" as="geometry" />
        </mxCell>
        <mxCell id="DNla2n4Dcu0zC7mmsUXs-11" value="" style="rounded=0;whiteSpace=wrap;html=1;strokeWidth=1;fillColor=#dae8fc;strokeColor=#6c8ebf;" vertex="1" parent="1">
          <mxGeometry x="590" y="720" width="80" height="200" as="geometry" />
        </mxCell>
        <mxCell id="DNla2n4Dcu0zC7mmsUXs-12" value="" style="rounded=0;whiteSpace=wrap;html=1;dashed=1;strokeWidth=3;fillColor=#dae8fc;strokeColor=#000000;" vertex="1" parent="1">
          <mxGeometry x="590" y="760" width="80" height="120" as="geometry" />
        </mxCell>
        <mxCell id="DNla2n4Dcu0zC7mmsUXs-40" style="edgeStyle=orthogonalEdgeStyle;rounded=0;orthogonalLoop=1;jettySize=auto;html=1;exitX=1;exitY=0.5;exitDx=0;exitDy=0;entryX=0;entryY=0.5;entryDx=0;entryDy=0;fillColor=#dae8fc;strokeColor=#6c8ebf;strokeWidth=9;endSize=1;" edge="1" parent="1" source="DNla2n4Dcu0zC7mmsUXs-13" target="DNla2n4Dcu0zC7mmsUXs-14">
          <mxGeometry relative="1" as="geometry" />
        </mxCell>
        <mxCell id="DNla2n4Dcu0zC7mmsUXs-13" value="" style="rounded=0;whiteSpace=wrap;html=1;strokeWidth=1;fillColor=#dae8fc;strokeColor=#6c8ebf;" vertex="1" parent="1">
          <mxGeometry x="590" y="960" width="80" height="120" as="geometry" />
        </mxCell>
        <mxCell id="DNla2n4Dcu0zC7mmsUXs-41" style="edgeStyle=orthogonalEdgeStyle;rounded=0;orthogonalLoop=1;jettySize=auto;html=1;exitX=1;exitY=0.5;exitDx=0;exitDy=0;entryX=0;entryY=0.5;entryDx=0;entryDy=0;fillColor=#dae8fc;strokeColor=#6c8ebf;strokeWidth=9;endSize=1;" edge="1" parent="1" source="DNla2n4Dcu0zC7mmsUXs-14" target="DNla2n4Dcu0zC7mmsUXs-16">
          <mxGeometry relative="1" as="geometry" />
        </mxCell>
        <mxCell id="DNla2n4Dcu0zC7mmsUXs-14" value="" style="rounded=0;whiteSpace=wrap;html=1;strokeWidth=1;fillColor=#dae8fc;strokeColor=#6c8ebf;" vertex="1" parent="1">
          <mxGeometry x="710" y="960" width="140" height="120" as="geometry" />
        </mxCell>
        <mxCell id="DNla2n4Dcu0zC7mmsUXs-55" style="edgeStyle=orthogonalEdgeStyle;rounded=0;orthogonalLoop=1;jettySize=auto;html=1;exitX=0.5;exitY=1;exitDx=0;exitDy=0;entryX=0.5;entryY=0;entryDx=0;entryDy=0;fillColor=#f8cecc;strokeColor=#b85450;strokeWidth=9;endSize=1;" edge="1" parent="1" source="DNla2n4Dcu0zC7mmsUXs-16" target="DNla2n4Dcu0zC7mmsUXs-17">
          <mxGeometry relative="1" as="geometry" />
        </mxCell>
        <mxCell id="DNla2n4Dcu0zC7mmsUXs-16" value="" style="rounded=0;whiteSpace=wrap;html=1;dashed=1;strokeWidth=3;fillColor=#dae8fc;strokeColor=#000000;" vertex="1" parent="1">
          <mxGeometry x="890" y="960" width="140" height="120" as="geometry" />
        </mxCell>
        <mxCell id="DNla2n4Dcu0zC7mmsUXs-42" style="edgeStyle=orthogonalEdgeStyle;rounded=0;orthogonalLoop=1;jettySize=auto;html=1;exitX=1;exitY=0.5;exitDx=0;exitDy=0;entryX=0;entryY=0.5;entryDx=0;entryDy=0;fillColor=#dae8fc;strokeColor=#6c8ebf;strokeWidth=9;endSize=1;" edge="1" parent="1" source="DNla2n4Dcu0zC7mmsUXs-17" target="DNla2n4Dcu0zC7mmsUXs-18">
          <mxGeometry relative="1" as="geometry" />
        </mxCell>
        <mxCell id="DNla2n4Dcu0zC7mmsUXs-17" value="" style="rounded=0;whiteSpace=wrap;html=1;strokeWidth=1;fillColor=#dae8fc;strokeColor=#6c8ebf;" vertex="1" parent="1">
          <mxGeometry x="890" y="1120" width="140" height="50" as="geometry" />
        </mxCell>
        <mxCell id="DNla2n4Dcu0zC7mmsUXs-43" style="edgeStyle=orthogonalEdgeStyle;rounded=0;orthogonalLoop=1;jettySize=auto;html=1;exitX=1;exitY=0.5;exitDx=0;exitDy=0;entryX=0;entryY=0.5;entryDx=0;entryDy=0;fillColor=#dae8fc;strokeColor=#6c8ebf;strokeWidth=9;endSize=1;" edge="1" parent="1" source="DNla2n4Dcu0zC7mmsUXs-18" target="DNla2n4Dcu0zC7mmsUXs-19">
          <mxGeometry relative="1" as="geometry" />
        </mxCell>
        <mxCell id="DNla2n4Dcu0zC7mmsUXs-18" value="" style="rounded=0;whiteSpace=wrap;html=1;strokeWidth=1;fillColor=#dae8fc;strokeColor=#6c8ebf;" vertex="1" parent="1">
          <mxGeometry x="1070" y="1119" width="230" height="50" as="geometry" />
        </mxCell>
        <mxCell id="DNla2n4Dcu0zC7mmsUXs-56" style="edgeStyle=orthogonalEdgeStyle;rounded=0;orthogonalLoop=1;jettySize=auto;html=1;exitX=0.5;exitY=0;exitDx=0;exitDy=0;entryX=0.5;entryY=1;entryDx=0;entryDy=0;fillColor=#d5e8d4;strokeColor=#82b366;strokeWidth=9;endSize=1;" edge="1" parent="1" source="DNla2n4Dcu0zC7mmsUXs-19" target="DNla2n4Dcu0zC7mmsUXs-20">
          <mxGeometry relative="1" as="geometry" />
        </mxCell>
        <mxCell id="DNla2n4Dcu0zC7mmsUXs-19" value="" style="rounded=0;whiteSpace=wrap;html=1;strokeWidth=1;fillColor=#dae8fc;strokeColor=#6c8ebf;" vertex="1" parent="1">
          <mxGeometry x="1340" y="1120" width="230" height="50" as="geometry" />
        </mxCell>
        <mxCell id="DNla2n4Dcu0zC7mmsUXs-44" style="edgeStyle=orthogonalEdgeStyle;rounded=0;orthogonalLoop=1;jettySize=auto;html=1;exitX=1;exitY=0.5;exitDx=0;exitDy=0;entryX=0;entryY=0.5;entryDx=0;entryDy=0;fillColor=#dae8fc;strokeColor=#6c8ebf;strokeWidth=9;endSize=1;" edge="1" parent="1" source="DNla2n4Dcu0zC7mmsUXs-20" target="DNla2n4Dcu0zC7mmsUXs-21">
          <mxGeometry relative="1" as="geometry" />
        </mxCell>
        <mxCell id="DNla2n4Dcu0zC7mmsUXs-20" value="" style="rounded=0;whiteSpace=wrap;html=1;strokeWidth=1;fillColor=#dae8fc;strokeColor=#6c8ebf;" vertex="1" parent="1">
          <mxGeometry x="1385" y="960" width="140" height="120" as="geometry" />
        </mxCell>
        <mxCell id="DNla2n4Dcu0zC7mmsUXs-45" style="edgeStyle=orthogonalEdgeStyle;rounded=0;orthogonalLoop=1;jettySize=auto;html=1;exitX=1;exitY=0.5;exitDx=0;exitDy=0;entryX=0;entryY=0.5;entryDx=0;entryDy=0;fillColor=#dae8fc;strokeColor=#6c8ebf;strokeWidth=9;endSize=1;" edge="1" parent="1" source="DNla2n4Dcu0zC7mmsUXs-21" target="DNla2n4Dcu0zC7mmsUXs-22">
          <mxGeometry relative="1" as="geometry" />
        </mxCell>
        <mxCell id="DNla2n4Dcu0zC7mmsUXs-21" value="" style="rounded=0;whiteSpace=wrap;html=1;strokeWidth=1;fillColor=#dae8fc;strokeColor=#6c8ebf;" vertex="1" parent="1">
          <mxGeometry x="1570" y="960" width="140" height="120" as="geometry" />
        </mxCell>
        <mxCell id="DNla2n4Dcu0zC7mmsUXs-57" style="edgeStyle=orthogonalEdgeStyle;rounded=0;orthogonalLoop=1;jettySize=auto;html=1;exitX=0.5;exitY=0;exitDx=0;exitDy=0;entryX=0.5;entryY=1;entryDx=0;entryDy=0;fillColor=#d5e8d4;strokeColor=#82b366;strokeWidth=9;endSize=1;" edge="1" parent="1" source="DNla2n4Dcu0zC7mmsUXs-22" target="DNla2n4Dcu0zC7mmsUXs-23">
          <mxGeometry relative="1" as="geometry" />
        </mxCell>
        <mxCell id="DNla2n4Dcu0zC7mmsUXs-22" value="" style="rounded=0;whiteSpace=wrap;html=1;strokeWidth=1;fillColor=#dae8fc;strokeColor=#6c8ebf;" vertex="1" parent="1">
          <mxGeometry x="1750" y="960" width="140" height="120" as="geometry" />
        </mxCell>
        <mxCell id="DNla2n4Dcu0zC7mmsUXs-46" style="edgeStyle=orthogonalEdgeStyle;rounded=0;orthogonalLoop=1;jettySize=auto;html=1;exitX=1;exitY=0.5;exitDx=0;exitDy=0;entryX=0;entryY=0.5;entryDx=0;entryDy=0;fillColor=#dae8fc;strokeColor=#6c8ebf;strokeWidth=9;endSize=1;" edge="1" parent="1" source="DNla2n4Dcu0zC7mmsUXs-23" target="DNla2n4Dcu0zC7mmsUXs-24">
          <mxGeometry relative="1" as="geometry" />
        </mxCell>
        <mxCell id="DNla2n4Dcu0zC7mmsUXs-23" value="" style="rounded=0;whiteSpace=wrap;html=1;strokeWidth=1;fillColor=#dae8fc;strokeColor=#6c8ebf;" vertex="1" parent="1">
          <mxGeometry x="1780" y="720" width="80" height="200" as="geometry" />
        </mxCell>
        <mxCell id="DNla2n4Dcu0zC7mmsUXs-47" style="edgeStyle=orthogonalEdgeStyle;rounded=0;orthogonalLoop=1;jettySize=auto;html=1;exitX=1;exitY=0.5;exitDx=0;exitDy=0;entryX=0;entryY=0.5;entryDx=0;entryDy=0;fillColor=#dae8fc;strokeColor=#6c8ebf;strokeWidth=9;endSize=1;" edge="1" parent="1" source="DNla2n4Dcu0zC7mmsUXs-24" target="DNla2n4Dcu0zC7mmsUXs-25">
          <mxGeometry relative="1" as="geometry" />
        </mxCell>
        <mxCell id="DNla2n4Dcu0zC7mmsUXs-24" value="" style="rounded=0;whiteSpace=wrap;html=1;strokeWidth=1;fillColor=#dae8fc;strokeColor=#6c8ebf;" vertex="1" parent="1">
          <mxGeometry x="1900" y="720" width="80" height="200" as="geometry" />
        </mxCell>
        <mxCell id="DNla2n4Dcu0zC7mmsUXs-58" style="edgeStyle=orthogonalEdgeStyle;rounded=0;orthogonalLoop=1;jettySize=auto;html=1;exitX=0.5;exitY=0;exitDx=0;exitDy=0;entryX=0.5;entryY=1;entryDx=0;entryDy=0;fillColor=#d5e8d4;strokeColor=#82b366;strokeWidth=9;endSize=1;" edge="1" parent="1" source="DNla2n4Dcu0zC7mmsUXs-25" target="DNla2n4Dcu0zC7mmsUXs-26">
          <mxGeometry relative="1" as="geometry" />
        </mxCell>
        <mxCell id="DNla2n4Dcu0zC7mmsUXs-25" value="" style="rounded=0;whiteSpace=wrap;html=1;strokeWidth=1;fillColor=#dae8fc;strokeColor=#6c8ebf;" vertex="1" parent="1">
          <mxGeometry x="2020" y="720" width="80" height="200" as="geometry" />
        </mxCell>
        <mxCell id="DNla2n4Dcu0zC7mmsUXs-48" style="edgeStyle=orthogonalEdgeStyle;rounded=0;orthogonalLoop=1;jettySize=auto;html=1;exitX=1;exitY=0.5;exitDx=0;exitDy=0;entryX=0;entryY=0.5;entryDx=0;entryDy=0;fillColor=#dae8fc;strokeColor=#6c8ebf;strokeWidth=9;endSize=1;" edge="1" parent="1" source="DNla2n4Dcu0zC7mmsUXs-26" target="DNla2n4Dcu0zC7mmsUXs-27">
          <mxGeometry relative="1" as="geometry" />
        </mxCell>
        <mxCell id="DNla2n4Dcu0zC7mmsUXs-26" value="" style="rounded=0;whiteSpace=wrap;html=1;strokeWidth=1;fillColor=#dae8fc;strokeColor=#6c8ebf;" vertex="1" parent="1">
          <mxGeometry x="2030" y="400" width="60" height="280" as="geometry" />
        </mxCell>
        <mxCell id="DNla2n4Dcu0zC7mmsUXs-49" style="edgeStyle=orthogonalEdgeStyle;rounded=0;orthogonalLoop=1;jettySize=auto;html=1;exitX=1;exitY=0.5;exitDx=0;exitDy=0;entryX=0;entryY=0.5;entryDx=0;entryDy=0;fillColor=#dae8fc;strokeColor=#6c8ebf;strokeWidth=9;endSize=1;" edge="1" parent="1" source="DNla2n4Dcu0zC7mmsUXs-27" target="DNla2n4Dcu0zC7mmsUXs-28">
          <mxGeometry relative="1" as="geometry" />
        </mxCell>
        <mxCell id="DNla2n4Dcu0zC7mmsUXs-27" value="" style="rounded=0;whiteSpace=wrap;html=1;strokeWidth=1;fillColor=#dae8fc;strokeColor=#6c8ebf;" vertex="1" parent="1">
          <mxGeometry x="2130" y="400" width="60" height="280" as="geometry" />
        </mxCell>
        <mxCell id="DNla2n4Dcu0zC7mmsUXs-59" style="edgeStyle=orthogonalEdgeStyle;rounded=0;orthogonalLoop=1;jettySize=auto;html=1;exitX=0.5;exitY=0;exitDx=0;exitDy=0;fillColor=#d5e8d4;strokeColor=#82b366;strokeWidth=9;endSize=1;" edge="1" parent="1" source="DNla2n4Dcu0zC7mmsUXs-28" target="DNla2n4Dcu0zC7mmsUXs-29">
          <mxGeometry relative="1" as="geometry" />
        </mxCell>
        <mxCell id="DNla2n4Dcu0zC7mmsUXs-28" value="" style="rounded=0;whiteSpace=wrap;html=1;strokeWidth=1;fillColor=#dae8fc;strokeColor=#6c8ebf;" vertex="1" parent="1">
          <mxGeometry x="2230" y="400" width="60" height="280" as="geometry" />
        </mxCell>
        <mxCell id="DNla2n4Dcu0zC7mmsUXs-50" style="edgeStyle=orthogonalEdgeStyle;rounded=0;orthogonalLoop=1;jettySize=auto;html=1;exitX=1;exitY=0.5;exitDx=0;exitDy=0;entryX=0;entryY=0.5;entryDx=0;entryDy=0;fillColor=#dae8fc;strokeColor=#6c8ebf;strokeWidth=9;endSize=1;" edge="1" parent="1" source="DNla2n4Dcu0zC7mmsUXs-29" target="DNla2n4Dcu0zC7mmsUXs-30">
          <mxGeometry relative="1" as="geometry" />
        </mxCell>
        <mxCell id="DNla2n4Dcu0zC7mmsUXs-29" value="" style="rounded=0;whiteSpace=wrap;html=1;fillColor=#dae8fc;strokeColor=#6c8ebf;" vertex="1" parent="1">
          <mxGeometry x="2245" y="30" width="30" height="330" as="geometry" />
        </mxCell>
        <mxCell id="DNla2n4Dcu0zC7mmsUXs-51" style="edgeStyle=orthogonalEdgeStyle;rounded=0;orthogonalLoop=1;jettySize=auto;html=1;exitX=1;exitY=0.5;exitDx=0;exitDy=0;entryX=0;entryY=0.5;entryDx=0;entryDy=0;fillColor=#dae8fc;strokeColor=#6c8ebf;strokeWidth=9;endSize=1;" edge="1" parent="1" source="DNla2n4Dcu0zC7mmsUXs-30" target="DNla2n4Dcu0zC7mmsUXs-31">
          <mxGeometry relative="1" as="geometry" />
        </mxCell>
        <mxCell id="DNla2n4Dcu0zC7mmsUXs-30" value="" style="rounded=0;whiteSpace=wrap;html=1;fillColor=#dae8fc;strokeColor=#6c8ebf;" vertex="1" parent="1">
          <mxGeometry x="2315" y="30" width="30" height="330" as="geometry" />
        </mxCell>
        <mxCell id="DNla2n4Dcu0zC7mmsUXs-52" style="edgeStyle=orthogonalEdgeStyle;rounded=0;orthogonalLoop=1;jettySize=auto;html=1;exitX=1;exitY=0.5;exitDx=0;exitDy=0;entryX=0;entryY=0.5;entryDx=0;entryDy=0;fillColor=#ffe6cc;strokeColor=#d79b00;strokeWidth=9;endSize=1;" edge="1" parent="1" source="DNla2n4Dcu0zC7mmsUXs-31" target="DNla2n4Dcu0zC7mmsUXs-32">
          <mxGeometry relative="1" as="geometry" />
        </mxCell>
        <mxCell id="DNla2n4Dcu0zC7mmsUXs-31" value="" style="rounded=0;whiteSpace=wrap;html=1;fillColor=#dae8fc;strokeColor=#6c8ebf;" vertex="1" parent="1">
          <mxGeometry x="2380" y="30" width="30" height="330" as="geometry" />
        </mxCell>
        <mxCell id="DNla2n4Dcu0zC7mmsUXs-32" value="" style="rounded=0;whiteSpace=wrap;html=1;fillColor=#dae8fc;strokeColor=#6c8ebf;" vertex="1" parent="1">
          <mxGeometry x="2450" y="30" width="10" height="330" as="geometry" />
        </mxCell>
        <mxCell id="DNla2n4Dcu0zC7mmsUXs-34" style="edgeStyle=orthogonalEdgeStyle;rounded=0;orthogonalLoop=1;jettySize=auto;html=1;entryX=0;entryY=0.5;entryDx=0;entryDy=0;strokeWidth=9;endSize=1;fillColor=#dae8fc;strokeColor=#6c8ebf;exitX=1;exitY=0.5;exitDx=0;exitDy=0;" edge="1" parent="1" source="DNla2n4Dcu0zC7mmsUXs-2" target="DNla2n4Dcu0zC7mmsUXs-3">
          <mxGeometry relative="1" as="geometry">
            <mxPoint x="160" y="200" as="sourcePoint" />
            <mxPoint x="140" y="205" as="targetPoint" />
          </mxGeometry>
        </mxCell>
        <mxCell id="DNla2n4Dcu0zC7mmsUXs-60" value="" style="rounded=0;whiteSpace=wrap;html=1;strokeWidth=4;fillColor=#f5f5f5;strokeColor=#97D077;fontColor=#333333;" vertex="1" parent="1">
          <mxGeometry x="1245" y="960" width="140" height="120" as="geometry" />
        </mxCell>
        <mxCell id="DNla2n4Dcu0zC7mmsUXs-61" value="" style="rounded=0;whiteSpace=wrap;html=1;strokeWidth=4;fillColor=#f5f5f5;strokeColor=#97D077;fontColor=#333333;" vertex="1" parent="1">
          <mxGeometry x="1700" y="720" width="80" height="200" as="geometry" />
        </mxCell>
        <mxCell id="DNla2n4Dcu0zC7mmsUXs-62" value="" style="rounded=0;whiteSpace=wrap;html=1;strokeWidth=4;fillColor=#f5f5f5;strokeColor=#97D077;fontColor=#333333;" vertex="1" parent="1">
          <mxGeometry x="1960" y="400" width="67.5" height="280" as="geometry" />
        </mxCell>
        <mxCell id="DNla2n4Dcu0zC7mmsUXs-63" value="" style="rounded=0;whiteSpace=wrap;html=1;strokeWidth=4;fillColor=#f5f5f5;strokeColor=#97D077;fontColor=#333333;" vertex="1" parent="1">
          <mxGeometry x="2210" y="30" width="35" height="330" as="geometry" />
        </mxCell>
        <mxCell id="DNla2n4Dcu0zC7mmsUXs-64" value="&lt;font style=&quot;font-size: 20px;&quot;&gt;$$L \times W$$&lt;/font&gt;" style="text;html=1;strokeColor=none;fillColor=none;align=center;verticalAlign=middle;whiteSpace=wrap;rounded=0;rotation=0;" vertex="1" parent="1">
          <mxGeometry x="55" y="360" width="60" height="30" as="geometry" />
        </mxCell>
        <mxCell id="DNla2n4Dcu0zC7mmsUXs-65" value="&lt;font style=&quot;font-size: 20px;&quot;&gt;$$L/2 \times W/2$$&lt;/font&gt;" style="text;html=1;strokeColor=none;fillColor=none;align=center;verticalAlign=middle;whiteSpace=wrap;rounded=0;rotation=0;" vertex="1" parent="1">
          <mxGeometry x="270" y="370" width="60" height="30" as="geometry" />
        </mxCell>
        <mxCell id="DNla2n4Dcu0zC7mmsUXs-69" value="&lt;font style=&quot;font-size: 30px;&quot;&gt;$$3$$&lt;/font&gt;" style="text;html=1;strokeColor=none;fillColor=none;align=center;verticalAlign=middle;whiteSpace=wrap;rounded=0;rotation=0;" vertex="1" parent="1">
          <mxGeometry x="55" width="60" height="30" as="geometry" />
        </mxCell>
        <mxCell id="DNla2n4Dcu0zC7mmsUXs-71" value="&lt;font style=&quot;font-size: 30px;&quot;&gt;$$C$$&lt;/font&gt;" style="text;html=1;strokeColor=none;fillColor=none;align=center;verticalAlign=middle;whiteSpace=wrap;rounded=0;rotation=0;" vertex="1" parent="1">
          <mxGeometry x="185" width="60" height="30" as="geometry" />
        </mxCell>
        <mxCell id="DNla2n4Dcu0zC7mmsUXs-72" value="&lt;font style=&quot;font-size: 30px;&quot;&gt;$$2C$$&lt;/font&gt;" style="text;html=1;strokeColor=none;fillColor=none;align=center;verticalAlign=middle;whiteSpace=wrap;rounded=0;rotation=0;" vertex="1" parent="1">
          <mxGeometry x="185" y="690" width="60" height="30" as="geometry" />
        </mxCell>
        <mxCell id="DNla2n4Dcu0zC7mmsUXs-74" value="&lt;font style=&quot;font-size: 30px;&quot;&gt;$$4C$$&lt;/font&gt;" style="text;html=1;strokeColor=none;fillColor=none;align=center;verticalAlign=middle;whiteSpace=wrap;rounded=0;rotation=0;" vertex="1" parent="1">
          <mxGeometry x="370" y="930" width="60" height="30" as="geometry" />
        </mxCell>
        <mxCell id="DNla2n4Dcu0zC7mmsUXs-75" value="&lt;font style=&quot;font-size: 30px;&quot;&gt;$$8C$$&lt;/font&gt;" style="text;html=1;strokeColor=none;fillColor=none;align=center;verticalAlign=middle;whiteSpace=wrap;rounded=0;rotation=0;" vertex="1" parent="1">
          <mxGeometry x="600" y="1089" width="60" height="30" as="geometry" />
        </mxCell>
        <mxCell id="DNla2n4Dcu0zC7mmsUXs-76" value="&lt;font style=&quot;font-size: 30px;&quot;&gt;$$16C$$&lt;/font&gt;" style="text;html=1;strokeColor=none;fillColor=none;align=center;verticalAlign=middle;whiteSpace=wrap;rounded=0;rotation=0;" vertex="1" parent="1">
          <mxGeometry x="1360" y="930" width="60" height="30" as="geometry" />
        </mxCell>
        <mxCell id="DNla2n4Dcu0zC7mmsUXs-77" value="&lt;font style=&quot;font-size: 30px;&quot;&gt;$$8C$$&lt;/font&gt;" style="text;html=1;strokeColor=none;fillColor=none;align=center;verticalAlign=middle;whiteSpace=wrap;rounded=0;rotation=0;" vertex="1" parent="1">
          <mxGeometry x="1610" y="930" width="60" height="30" as="geometry" />
        </mxCell>
        <mxCell id="DNla2n4Dcu0zC7mmsUXs-78" value="&lt;font style=&quot;font-size: 30px;&quot;&gt;$$8C$$&lt;/font&gt;" style="text;html=1;strokeColor=none;fillColor=none;align=center;verticalAlign=middle;whiteSpace=wrap;rounded=0;rotation=0;" vertex="1" parent="1">
          <mxGeometry x="1790" y="690" width="60" height="30" as="geometry" />
        </mxCell>
        <mxCell id="DNla2n4Dcu0zC7mmsUXs-79" value="&lt;font style=&quot;font-size: 30px;&quot;&gt;$$4C$$&lt;/font&gt;" style="text;html=1;strokeColor=none;fillColor=none;align=center;verticalAlign=middle;whiteSpace=wrap;rounded=0;rotation=0;" vertex="1" parent="1">
          <mxGeometry x="1910" y="690" width="60" height="30" as="geometry" />
        </mxCell>
        <mxCell id="DNla2n4Dcu0zC7mmsUXs-80" value="&lt;font style=&quot;font-size: 30px;&quot;&gt;$$4C$$&lt;/font&gt;" style="text;html=1;strokeColor=none;fillColor=none;align=center;verticalAlign=middle;whiteSpace=wrap;rounded=0;rotation=0;" vertex="1" parent="1">
          <mxGeometry x="2000" y="370" width="60" height="30" as="geometry" />
        </mxCell>
        <mxCell id="DNla2n4Dcu0zC7mmsUXs-81" value="&lt;font style=&quot;font-size: 30px;&quot;&gt;$$2C$$&lt;/font&gt;" style="text;html=1;strokeColor=none;fillColor=none;align=center;verticalAlign=middle;whiteSpace=wrap;rounded=0;rotation=0;" vertex="1" parent="1">
          <mxGeometry x="2130" y="370" width="60" height="30" as="geometry" />
        </mxCell>
        <mxCell id="DNla2n4Dcu0zC7mmsUXs-82" value="&lt;font style=&quot;font-size: 30px;&quot;&gt;$$2C$$&lt;/font&gt;" style="text;html=1;strokeColor=none;fillColor=none;align=center;verticalAlign=middle;whiteSpace=wrap;rounded=0;rotation=0;" vertex="1" parent="1">
          <mxGeometry x="2215" width="60" height="30" as="geometry" />
        </mxCell>
        <mxCell id="DNla2n4Dcu0zC7mmsUXs-83" value="&lt;font style=&quot;font-size: 30px;&quot;&gt;$$C$$&lt;/font&gt;" style="text;html=1;strokeColor=none;fillColor=none;align=center;verticalAlign=middle;whiteSpace=wrap;rounded=0;rotation=0;" vertex="1" parent="1">
          <mxGeometry x="2300" width="60" height="30" as="geometry" />
        </mxCell>
        <mxCell id="DNla2n4Dcu0zC7mmsUXs-84" value="&lt;font style=&quot;font-size: 30px;&quot;&gt;$$3$$&lt;/font&gt;" style="text;html=1;strokeColor=none;fillColor=none;align=center;verticalAlign=middle;whiteSpace=wrap;rounded=0;rotation=0;" vertex="1" parent="1">
          <mxGeometry x="2425" width="60" height="30" as="geometry" />
        </mxCell>
        <mxCell id="DNla2n4Dcu0zC7mmsUXs-85" value="&lt;font style=&quot;font-size: 20px;&quot;&gt;$$L \times W$$&lt;/font&gt;" style="text;html=1;strokeColor=none;fillColor=none;align=center;verticalAlign=middle;whiteSpace=wrap;rounded=0;rotation=0;" vertex="1" parent="1">
          <mxGeometry x="2425" y="360" width="60" height="30" as="geometry" />
        </mxCell>
        <mxCell id="DNla2n4Dcu0zC7mmsUXs-88" value="" style="shape=flexArrow;endArrow=classic;html=1;rounded=0;width=24.137931034482758;endSize=18.883333333333333;endWidth=39.770114942528735;fillColor=#E6E6E6;strokeColor=none;" edge="1" parent="1">
          <mxGeometry width="50" height="50" relative="1" as="geometry">
            <mxPoint x="314" y="193.57" as="sourcePoint" />
            <mxPoint x="2130" y="194.4" as="targetPoint" />
            <Array as="points">
              <mxPoint x="430" y="194.19" />
            </Array>
          </mxGeometry>
        </mxCell>
        <mxCell id="DNla2n4Dcu0zC7mmsUXs-89" value="" style="shape=flexArrow;endArrow=classic;html=1;rounded=0;width=24.137931034482758;endSize=18.883333333333333;endWidth=39.770114942528735;fillColor=#E6E6E6;strokeColor=none;" edge="1" parent="1">
          <mxGeometry width="50" height="50" relative="1" as="geometry">
            <mxPoint x="500" y="550.38" as="sourcePoint" />
            <mxPoint x="1890" y="550.38" as="targetPoint" />
            <Array as="points">
              <mxPoint x="616" y="550" />
            </Array>
          </mxGeometry>
        </mxCell>
        <mxCell id="DNla2n4Dcu0zC7mmsUXs-67" value="&lt;font style=&quot;font-size: 20px;&quot;&gt;$$L/4 \times W/4$$&lt;/font&gt;" style="text;html=1;strokeColor=none;fillColor=none;align=center;verticalAlign=middle;whiteSpace=wrap;rounded=0;rotation=0;" vertex="1" parent="1">
          <mxGeometry x="600" y="690" width="60" height="30" as="geometry" />
        </mxCell>
        <mxCell id="DNla2n4Dcu0zC7mmsUXs-90" value="" style="shape=flexArrow;endArrow=classic;html=1;rounded=0;width=24.137931034482758;endSize=18.883333333333333;endWidth=39.770114942528735;fillColor=#E6E6E6;strokeColor=none;" edge="1" parent="1">
          <mxGeometry width="50" height="50" relative="1" as="geometry">
            <mxPoint x="745" y="830" as="sourcePoint" />
            <mxPoint x="1625" y="831" as="targetPoint" />
            <Array as="points">
              <mxPoint x="861" y="830.62" />
            </Array>
          </mxGeometry>
        </mxCell>
        <mxCell id="DNla2n4Dcu0zC7mmsUXs-68" value="&lt;font style=&quot;font-size: 20px;&quot;&gt;$$L/8 \times W/8$$&lt;/font&gt;" style="text;html=1;strokeColor=none;fillColor=none;align=center;verticalAlign=middle;whiteSpace=wrap;rounded=0;rotation=0;" vertex="1" parent="1">
          <mxGeometry x="930" y="929" width="60" height="30" as="geometry" />
        </mxCell>
        <mxCell id="DNla2n4Dcu0zC7mmsUXs-91" value="" style="shape=flexArrow;endArrow=classic;html=1;rounded=0;width=24.137931034482758;endSize=18.883333333333333;endWidth=39.770114942528735;fillColor=#E6E6E6;strokeColor=none;" edge="1" parent="1">
          <mxGeometry width="50" height="50" relative="1" as="geometry">
            <mxPoint x="1070" y="1019.23" as="sourcePoint" />
            <mxPoint x="1210" y="1020" as="targetPoint" />
            <Array as="points">
              <mxPoint x="1186" y="1019.85" />
            </Array>
          </mxGeometry>
        </mxCell>
        <mxCell id="T1fz0HZbwKbeG-GpWIVx-1" style="edgeStyle=orthogonalEdgeStyle;rounded=0;orthogonalLoop=1;jettySize=auto;html=1;exitX=1;exitY=0.5;exitDx=0;exitDy=0;entryX=0;entryY=0.5;entryDx=0;entryDy=0;fillColor=#dae8fc;strokeColor=#6c8ebf;strokeWidth=9;endSize=1;" edge="1" parent="1">
          <mxGeometry relative="1" as="geometry">
            <mxPoint x="2150" y="873.74" as="sourcePoint" />
            <mxPoint x="2190" y="873.74" as="targetPoint" />
          </mxGeometry>
        </mxCell>
        <mxCell id="T1fz0HZbwKbeG-GpWIVx-2" value="&lt;font style=&quot;font-size: 30px;&quot;&gt;$$\text{conv}~3 \times 3,\text{ReLU}$$&lt;/font&gt;" style="text;html=1;strokeColor=none;fillColor=none;align=left;verticalAlign=middle;whiteSpace=wrap;rounded=0;" vertex="1" parent="1">
          <mxGeometry x="2205" y="859" width="110" height="30" as="geometry" />
        </mxCell>
        <mxCell id="T1fz0HZbwKbeG-GpWIVx-4" value="" style="shape=flexArrow;endArrow=classic;html=1;rounded=0;fillColor=#f5f5f5;strokeColor=#666666;" edge="1" parent="1">
          <mxGeometry width="50" height="50" relative="1" as="geometry">
            <mxPoint x="2150" y="923.74" as="sourcePoint" />
            <mxPoint x="2185" y="923.74" as="targetPoint" />
          </mxGeometry>
        </mxCell>
        <mxCell id="T1fz0HZbwKbeG-GpWIVx-5" value="&lt;font style=&quot;font-size: 30px;&quot;&gt;$$\text{copy and crop}$$&lt;/font&gt;" style="text;html=1;strokeColor=none;fillColor=none;align=left;verticalAlign=middle;whiteSpace=wrap;rounded=0;" vertex="1" parent="1">
          <mxGeometry x="2205" y="909" width="110" height="30" as="geometry" />
        </mxCell>
        <mxCell id="T1fz0HZbwKbeG-GpWIVx-6" style="edgeStyle=orthogonalEdgeStyle;rounded=0;orthogonalLoop=1;jettySize=auto;html=1;exitX=0.5;exitY=1;exitDx=0;exitDy=0;entryX=0.5;entryY=0;entryDx=0;entryDy=0;strokeWidth=9;fillColor=#f8cecc;strokeColor=#b85450;endSize=1;" edge="1" parent="1">
          <mxGeometry relative="1" as="geometry">
            <mxPoint x="2165" y="954" as="sourcePoint" />
            <mxPoint x="2165" y="994" as="targetPoint" />
          </mxGeometry>
        </mxCell>
        <mxCell id="T1fz0HZbwKbeG-GpWIVx-7" value="&lt;font style=&quot;font-size: 30px;&quot;&gt;$$\text{max pool}~2 \times 2$$&lt;/font&gt;" style="text;html=1;strokeColor=none;fillColor=none;align=left;verticalAlign=middle;whiteSpace=wrap;rounded=0;" vertex="1" parent="1">
          <mxGeometry x="2205" y="959" width="110" height="30" as="geometry" />
        </mxCell>
        <mxCell id="T1fz0HZbwKbeG-GpWIVx-8" style="edgeStyle=orthogonalEdgeStyle;rounded=0;orthogonalLoop=1;jettySize=auto;html=1;exitX=0.5;exitY=0;exitDx=0;exitDy=0;entryX=0.5;entryY=1;entryDx=0;entryDy=0;fillColor=#d5e8d4;strokeColor=#82b366;strokeWidth=9;endSize=1;" edge="1" parent="1">
          <mxGeometry relative="1" as="geometry">
            <mxPoint x="2165" y="1044" as="sourcePoint" />
            <mxPoint x="2165" y="1004" as="targetPoint" />
          </mxGeometry>
        </mxCell>
        <mxCell id="T1fz0HZbwKbeG-GpWIVx-9" value="&lt;font style=&quot;font-size: 30px;&quot;&gt;$$\text{up-conv}~2 \times 2$$&lt;/font&gt;" style="text;html=1;strokeColor=none;fillColor=none;align=left;verticalAlign=middle;whiteSpace=wrap;rounded=0;" vertex="1" parent="1">
          <mxGeometry x="2205" y="1009" width="110" height="30" as="geometry" />
        </mxCell>
        <mxCell id="T1fz0HZbwKbeG-GpWIVx-10" style="edgeStyle=orthogonalEdgeStyle;rounded=0;orthogonalLoop=1;jettySize=auto;html=1;exitX=1;exitY=0.5;exitDx=0;exitDy=0;entryX=0;entryY=0.5;entryDx=0;entryDy=0;fillColor=#ffe6cc;strokeColor=#d79b00;strokeWidth=9;endSize=1;" edge="1" parent="1">
          <mxGeometry relative="1" as="geometry">
            <mxPoint x="2150" y="1073.62" as="sourcePoint" />
            <mxPoint x="2190" y="1073.62" as="targetPoint" />
          </mxGeometry>
        </mxCell>
        <mxCell id="T1fz0HZbwKbeG-GpWIVx-11" value="&lt;font style=&quot;font-size: 30px;&quot;&gt;$$\text{conv}~1 \times 1$$&lt;/font&gt;" style="text;html=1;strokeColor=none;fillColor=none;align=left;verticalAlign=middle;whiteSpace=wrap;rounded=0;" vertex="1" parent="1">
          <mxGeometry x="2205" y="1059" width="110" height="30" as="geometry" />
        </mxCell>
      </root>
    </mxGraphModel>
  </diagram>
  <diagram id="XdB8ONCqkll2_04sJtU6" name="ページ2">
    <mxGraphModel grid="1" page="1" gridSize="10" guides="1" tooltips="1" connect="1" arrows="1" fold="1" pageScale="1" pageWidth="827" pageHeight="1169" math="1" shadow="0">
      <root>
        <mxCell id="0" />
        <mxCell id="1" parent="0" />
        <mxCell id="8kvsp9JrE4OR5qHueXJZ-26" style="rounded=0;orthogonalLoop=1;jettySize=auto;html=1;exitX=1;exitY=0;exitDx=0;exitDy=0;entryX=0.25;entryY=0;entryDx=0;entryDy=0;endArrow=none;endFill=0;dashed=1;" edge="1" parent="1" source="8kvsp9JrE4OR5qHueXJZ-1" target="8kvsp9JrE4OR5qHueXJZ-15">
          <mxGeometry relative="1" as="geometry" />
        </mxCell>
        <mxCell id="8kvsp9JrE4OR5qHueXJZ-27" style="rounded=0;orthogonalLoop=1;jettySize=auto;html=1;exitX=1;exitY=1;exitDx=0;exitDy=0;entryX=0;entryY=1;entryDx=0;entryDy=0;endArrow=none;endFill=0;dashed=1;" edge="1" parent="1" source="8kvsp9JrE4OR5qHueXJZ-1" target="8kvsp9JrE4OR5qHueXJZ-11">
          <mxGeometry relative="1" as="geometry" />
        </mxCell>
        <mxCell id="8kvsp9JrE4OR5qHueXJZ-28" style="rounded=0;orthogonalLoop=1;jettySize=auto;html=1;exitX=1;exitY=0;exitDx=0;exitDy=0;entryX=0.25;entryY=0;entryDx=0;entryDy=0;endArrow=none;endFill=0;dashed=1;" edge="1" parent="1" source="8kvsp9JrE4OR5qHueXJZ-1" target="8kvsp9JrE4OR5qHueXJZ-8">
          <mxGeometry relative="1" as="geometry" />
        </mxCell>
        <mxCell id="8kvsp9JrE4OR5qHueXJZ-29" style="rounded=0;orthogonalLoop=1;jettySize=auto;html=1;exitX=1;exitY=1;exitDx=0;exitDy=0;entryX=0;entryY=1;entryDx=0;entryDy=0;dashed=1;endArrow=none;endFill=0;" edge="1" parent="1" source="8kvsp9JrE4OR5qHueXJZ-1" target="8kvsp9JrE4OR5qHueXJZ-4">
          <mxGeometry relative="1" as="geometry" />
        </mxCell>
        <mxCell id="8kvsp9JrE4OR5qHueXJZ-1" value="" style="rounded=0;whiteSpace=wrap;html=1;strokeWidth=7;fillColor=#d5e8d4;strokeColor=#82b366;" vertex="1" parent="1">
          <mxGeometry x="120" y="625" width="60" height="200" as="geometry" />
        </mxCell>
        <mxCell id="8kvsp9JrE4OR5qHueXJZ-2" value="&lt;font style=&quot;font-size: 30px;&quot;&gt;$$\in \mathbb{R}^{E_T}$$&lt;/font&gt;" style="text;html=1;strokeColor=none;fillColor=none;align=center;verticalAlign=middle;whiteSpace=wrap;rounded=0;" vertex="1" parent="1">
          <mxGeometry x="100" y="585" width="130" height="30" as="geometry" />
        </mxCell>
        <mxCell id="8kvsp9JrE4OR5qHueXJZ-3" value="" style="shape=parallelogram;perimeter=parallelogramPerimeter;whiteSpace=wrap;html=1;fixedSize=1;size=100;fillColor=#f8cecc;strokeColor=#b85450;strokeWidth=7;" vertex="1" parent="1">
          <mxGeometry x="360" y="840" width="150" height="200" as="geometry" />
        </mxCell>
        <mxCell id="8kvsp9JrE4OR5qHueXJZ-4" value="" style="shape=parallelogram;perimeter=parallelogramPerimeter;whiteSpace=wrap;html=1;fixedSize=1;size=20;fillColor=#f8cecc;strokeColor=#b85450;strokeWidth=7;" vertex="1" parent="1">
          <mxGeometry x="360" y="1000" width="70" height="40" as="geometry" />
        </mxCell>
        <mxCell id="8kvsp9JrE4OR5qHueXJZ-5" value="" style="shape=parallelogram;perimeter=parallelogramPerimeter;whiteSpace=wrap;html=1;fixedSize=1;size=20;fillColor=#f8cecc;strokeColor=#b85450;strokeWidth=7;" vertex="1" parent="1">
          <mxGeometry x="380" y="960" width="70" height="40" as="geometry" />
        </mxCell>
        <mxCell id="8kvsp9JrE4OR5qHueXJZ-6" value="" style="shape=parallelogram;perimeter=parallelogramPerimeter;whiteSpace=wrap;html=1;fixedSize=1;size=20;fillColor=#f8cecc;strokeColor=#b85450;strokeWidth=7;" vertex="1" parent="1">
          <mxGeometry x="400" y="920" width="70" height="40" as="geometry" />
        </mxCell>
        <mxCell id="8kvsp9JrE4OR5qHueXJZ-7" value="" style="shape=parallelogram;perimeter=parallelogramPerimeter;whiteSpace=wrap;html=1;fixedSize=1;size=20;fillColor=#f8cecc;strokeColor=#b85450;strokeWidth=7;" vertex="1" parent="1">
          <mxGeometry x="420" y="880" width="70" height="40" as="geometry" />
        </mxCell>
        <mxCell id="8kvsp9JrE4OR5qHueXJZ-8" value="" style="shape=parallelogram;perimeter=parallelogramPerimeter;whiteSpace=wrap;html=1;fixedSize=1;size=20;fillColor=#f8cecc;strokeColor=#b85450;strokeWidth=7;" vertex="1" parent="1">
          <mxGeometry x="440" y="840" width="70" height="40" as="geometry" />
        </mxCell>
        <mxCell id="8kvsp9JrE4OR5qHueXJZ-10" value="" style="shape=parallelogram;perimeter=parallelogramPerimeter;whiteSpace=wrap;html=1;fixedSize=1;size=100;fillColor=#f8cecc;strokeColor=#b85450;strokeWidth=6;" vertex="1" parent="1">
          <mxGeometry x="360" y="480" width="150" height="200" as="geometry" />
        </mxCell>
        <mxCell id="8kvsp9JrE4OR5qHueXJZ-11" value="" style="shape=parallelogram;perimeter=parallelogramPerimeter;whiteSpace=wrap;html=1;fixedSize=1;size=20;fillColor=#f8cecc;strokeColor=#b85450;strokeWidth=6;" vertex="1" parent="1">
          <mxGeometry x="360" y="640" width="70" height="40" as="geometry" />
        </mxCell>
        <mxCell id="8kvsp9JrE4OR5qHueXJZ-12" value="" style="shape=parallelogram;perimeter=parallelogramPerimeter;whiteSpace=wrap;html=1;fixedSize=1;size=20;fillColor=#f8cecc;strokeColor=#b85450;strokeWidth=6;" vertex="1" parent="1">
          <mxGeometry x="380" y="600" width="70" height="40" as="geometry" />
        </mxCell>
        <mxCell id="8kvsp9JrE4OR5qHueXJZ-13" value="" style="shape=parallelogram;perimeter=parallelogramPerimeter;whiteSpace=wrap;html=1;fixedSize=1;size=20;fillColor=#f8cecc;strokeColor=#b85450;strokeWidth=6;" vertex="1" parent="1">
          <mxGeometry x="400" y="560" width="70" height="40" as="geometry" />
        </mxCell>
        <mxCell id="8kvsp9JrE4OR5qHueXJZ-14" value="" style="shape=parallelogram;perimeter=parallelogramPerimeter;whiteSpace=wrap;html=1;fixedSize=1;size=20;fillColor=#f8cecc;strokeColor=#b85450;strokeWidth=6;" vertex="1" parent="1">
          <mxGeometry x="420" y="520" width="70" height="40" as="geometry" />
        </mxCell>
        <mxCell id="8kvsp9JrE4OR5qHueXJZ-15" value="" style="shape=parallelogram;perimeter=parallelogramPerimeter;whiteSpace=wrap;html=1;fixedSize=1;size=20;fillColor=#f8cecc;strokeColor=#b85450;strokeWidth=6;" vertex="1" parent="1">
          <mxGeometry x="440" y="480" width="70" height="40" as="geometry" />
        </mxCell>
        <mxCell id="8kvsp9JrE4OR5qHueXJZ-16" value="&lt;font style=&quot;font-size: 30px;&quot;&gt;$${E_T}$$&lt;/font&gt;" style="text;html=1;strokeColor=none;fillColor=none;align=center;verticalAlign=middle;whiteSpace=wrap;rounded=0;" vertex="1" parent="1">
          <mxGeometry x="120" y="710" width="60" height="30" as="geometry" />
        </mxCell>
        <mxCell id="8kvsp9JrE4OR5qHueXJZ-17" value="&lt;font style=&quot;font-size: 30px;&quot;&gt;$$\text{Scale} \in&amp;nbsp; \mathbb{R}^{c}$$&lt;/font&gt;" style="text;html=1;strokeColor=none;fillColor=none;align=center;verticalAlign=middle;whiteSpace=wrap;rounded=0;" vertex="1" parent="1">
          <mxGeometry x="370" y="700" width="130" height="30" as="geometry" />
        </mxCell>
        <mxCell id="8kvsp9JrE4OR5qHueXJZ-18" value="&lt;font style=&quot;font-size: 30px;&quot;&gt;$$\text{Shift} \in&amp;nbsp; \mathbb{R}^{c}$$&lt;/font&gt;" style="text;html=1;strokeColor=none;fillColor=none;align=center;verticalAlign=middle;whiteSpace=wrap;rounded=0;" vertex="1" parent="1">
          <mxGeometry x="370" y="1060" width="130" height="30" as="geometry" />
        </mxCell>
        <mxCell id="8kvsp9JrE4OR5qHueXJZ-19" value="" style="whiteSpace=wrap;html=1;aspect=fixed;fillColor=#dae8fc;strokeColor=#6c8ebf;strokeWidth=7;" vertex="1" parent="1">
          <mxGeometry x="730" y="530" width="215" height="215" as="geometry" />
        </mxCell>
        <mxCell id="8kvsp9JrE4OR5qHueXJZ-20" value="" style="whiteSpace=wrap;html=1;aspect=fixed;fillColor=#dae8fc;strokeColor=#6c8ebf;strokeWidth=7;" vertex="1" parent="1">
          <mxGeometry x="710" y="550" width="215" height="215" as="geometry" />
        </mxCell>
        <mxCell id="8kvsp9JrE4OR5qHueXJZ-21" value="" style="whiteSpace=wrap;html=1;aspect=fixed;fillColor=#dae8fc;strokeColor=#6c8ebf;strokeWidth=7;" vertex="1" parent="1">
          <mxGeometry x="690" y="570" width="215" height="215" as="geometry" />
        </mxCell>
        <mxCell id="8kvsp9JrE4OR5qHueXJZ-22" value="" style="whiteSpace=wrap;html=1;aspect=fixed;fillColor=#dae8fc;strokeColor=#6c8ebf;strokeWidth=7;" vertex="1" parent="1">
          <mxGeometry x="670" y="590" width="215" height="215" as="geometry" />
        </mxCell>
        <mxCell id="8kvsp9JrE4OR5qHueXJZ-23" value="" style="whiteSpace=wrap;html=1;aspect=fixed;fillColor=#dae8fc;strokeColor=#6c8ebf;strokeWidth=7;" vertex="1" parent="1">
          <mxGeometry x="650" y="610" width="215" height="215" as="geometry" />
        </mxCell>
        <mxCell id="8kvsp9JrE4OR5qHueXJZ-48" style="edgeStyle=orthogonalEdgeStyle;rounded=0;orthogonalLoop=1;jettySize=auto;html=1;exitX=1;exitY=0.5;exitDx=0;exitDy=0;" edge="1" parent="1" source="8kvsp9JrE4OR5qHueXJZ-24" target="8kvsp9JrE4OR5qHueXJZ-47">
          <mxGeometry relative="1" as="geometry">
            <Array as="points">
              <mxPoint x="590" y="585" />
              <mxPoint x="590" y="480" />
              <mxPoint x="1045" y="480" />
            </Array>
          </mxGeometry>
        </mxCell>
        <mxCell id="8kvsp9JrE4OR5qHueXJZ-24" value="&lt;font style=&quot;font-size: 40px;&quot;&gt;$${c}$$&lt;/font&gt;" style="text;html=1;strokeColor=none;fillColor=none;align=center;verticalAlign=middle;whiteSpace=wrap;rounded=0;" vertex="1" parent="1">
          <mxGeometry x="460" y="570" width="80" height="30" as="geometry" />
        </mxCell>
        <mxCell id="8kvsp9JrE4OR5qHueXJZ-46" style="edgeStyle=orthogonalEdgeStyle;rounded=0;orthogonalLoop=1;jettySize=auto;html=1;entryX=0.5;entryY=1;entryDx=0;entryDy=0;entryPerimeter=0;" edge="1" parent="1" source="8kvsp9JrE4OR5qHueXJZ-25" target="8kvsp9JrE4OR5qHueXJZ-44">
          <mxGeometry relative="1" as="geometry" />
        </mxCell>
        <mxCell id="8kvsp9JrE4OR5qHueXJZ-25" value="&lt;font style=&quot;font-size: 40px;&quot;&gt;$${c}$$&lt;/font&gt;" style="text;html=1;strokeColor=none;fillColor=none;align=center;verticalAlign=middle;whiteSpace=wrap;rounded=0;" vertex="1" parent="1">
          <mxGeometry x="460" y="930" width="70" height="30" as="geometry" />
        </mxCell>
        <mxCell id="8kvsp9JrE4OR5qHueXJZ-30" value="&lt;font face=&quot;Times New Roman&quot; style=&quot;font-size: 30px;&quot;&gt;Time vector&lt;/font&gt;" style="text;html=1;strokeColor=none;fillColor=none;align=center;verticalAlign=middle;whiteSpace=wrap;rounded=0;" vertex="1" parent="1">
          <mxGeometry x="90" y="520" width="130" height="30" as="geometry" />
        </mxCell>
        <mxCell id="8kvsp9JrE4OR5qHueXJZ-31" value="" style="whiteSpace=wrap;html=1;aspect=fixed;fillColor=#dae8fc;strokeColor=#B85450;strokeWidth=7;" vertex="1" parent="1">
          <mxGeometry x="1280" y="530" width="215" height="215" as="geometry" />
        </mxCell>
        <mxCell id="8kvsp9JrE4OR5qHueXJZ-32" value="" style="whiteSpace=wrap;html=1;aspect=fixed;fillColor=#dae8fc;strokeColor=#B85450;strokeWidth=7;" vertex="1" parent="1">
          <mxGeometry x="1260" y="550" width="215" height="215" as="geometry" />
        </mxCell>
        <mxCell id="8kvsp9JrE4OR5qHueXJZ-33" value="" style="whiteSpace=wrap;html=1;aspect=fixed;fillColor=#dae8fc;strokeColor=#B85450;strokeWidth=7;" vertex="1" parent="1">
          <mxGeometry x="1240" y="570" width="215" height="215" as="geometry" />
        </mxCell>
        <mxCell id="8kvsp9JrE4OR5qHueXJZ-36" value="&lt;font style=&quot;font-size: 40px;&quot;&gt;$${W}$$&lt;/font&gt;" style="text;html=1;strokeColor=none;fillColor=none;align=center;verticalAlign=middle;whiteSpace=wrap;rounded=0;" vertex="1" parent="1">
          <mxGeometry x="692.5" y="840" width="130" height="30" as="geometry" />
        </mxCell>
        <mxCell id="8kvsp9JrE4OR5qHueXJZ-37" value="&lt;font style=&quot;font-size: 40px;&quot;&gt;$${L}$$&lt;/font&gt;" style="text;html=1;strokeColor=none;fillColor=none;align=center;verticalAlign=middle;whiteSpace=wrap;rounded=0;" vertex="1" parent="1">
          <mxGeometry x="580" y="622.5" width="70" height="30" as="geometry" />
        </mxCell>
        <mxCell id="8kvsp9JrE4OR5qHueXJZ-38" value="&lt;font style=&quot;font-size: 40px;&quot;&gt;$${I}$$&lt;/font&gt;" style="text;html=1;strokeColor=none;fillColor=none;align=center;verticalAlign=middle;whiteSpace=wrap;rounded=0;strokeWidth=7;" vertex="1" parent="1">
          <mxGeometry x="722.5" y="710" width="70" height="30" as="geometry" />
        </mxCell>
        <mxCell id="8kvsp9JrE4OR5qHueXJZ-34" value="" style="whiteSpace=wrap;html=1;aspect=fixed;fillColor=#dae8fc;strokeColor=#B85450;strokeWidth=7;" vertex="1" parent="1">
          <mxGeometry x="1220" y="590" width="215" height="215" as="geometry" />
        </mxCell>
        <mxCell id="8kvsp9JrE4OR5qHueXJZ-35" value="" style="whiteSpace=wrap;html=1;aspect=fixed;fillColor=#dae8fc;strokeColor=#B85450;strokeWidth=7;" vertex="1" parent="1">
          <mxGeometry x="1200" y="610" width="215" height="215" as="geometry" />
        </mxCell>
        <mxCell id="8kvsp9JrE4OR5qHueXJZ-41" style="edgeStyle=orthogonalEdgeStyle;rounded=0;orthogonalLoop=1;jettySize=auto;html=1;entryX=0;entryY=0.5;entryDx=0;entryDy=0;" edge="1" parent="1" source="8kvsp9JrE4OR5qHueXJZ-44" target="8kvsp9JrE4OR5qHueXJZ-42">
          <mxGeometry relative="1" as="geometry">
            <mxPoint x="1140" y="970" as="targetPoint" />
          </mxGeometry>
        </mxCell>
        <mxCell id="8kvsp9JrE4OR5qHueXJZ-40" value="" style="rounded=0;whiteSpace=wrap;html=1;fillColor=none;strokeColor=none;" vertex="1" parent="1">
          <mxGeometry x="950" y="687.5" width="30" height="60" as="geometry" />
        </mxCell>
        <mxCell id="8kvsp9JrE4OR5qHueXJZ-42" value="" style="rounded=0;whiteSpace=wrap;html=1;strokeColor=none;fillColor=none;" vertex="1" parent="1">
          <mxGeometry x="1190" y="687.5" width="30" height="60" as="geometry" />
        </mxCell>
        <mxCell id="8kvsp9JrE4OR5qHueXJZ-45" value="" style="edgeStyle=orthogonalEdgeStyle;rounded=0;orthogonalLoop=1;jettySize=auto;html=1;entryX=0;entryY=0.5;entryDx=0;entryDy=0;" edge="1" parent="1" source="8kvsp9JrE4OR5qHueXJZ-40" target="8kvsp9JrE4OR5qHueXJZ-44">
          <mxGeometry relative="1" as="geometry">
            <mxPoint x="1190" y="718" as="targetPoint" />
            <mxPoint x="980" y="718" as="sourcePoint" />
          </mxGeometry>
        </mxCell>
        <mxCell id="8kvsp9JrE4OR5qHueXJZ-44" value="" style="verticalLabelPosition=bottom;shadow=0;dashed=0;align=center;html=1;verticalAlign=top;shape=mxgraph.electrical.abstract.summation_point;" vertex="1" parent="1">
          <mxGeometry x="1110" y="692.5" width="50" height="50" as="geometry" />
        </mxCell>
        <mxCell id="8kvsp9JrE4OR5qHueXJZ-47" value="" style="verticalLabelPosition=bottom;shadow=0;dashed=0;align=center;html=1;verticalAlign=top;shape=mxgraph.electrical.abstract.multiplier;" vertex="1" parent="1">
          <mxGeometry x="1020" y="690" width="50" height="50" as="geometry" />
        </mxCell>
        <mxCell id="8kvsp9JrE4OR5qHueXJZ-49" value="&lt;font style=&quot;font-size: 40px;&quot;&gt;$${c}$$&lt;/font&gt;" style="text;html=1;strokeColor=none;fillColor=none;align=center;verticalAlign=middle;whiteSpace=wrap;rounded=0;" vertex="1" parent="1">
          <mxGeometry x="920" y="805" width="80" height="30" as="geometry" />
        </mxCell>
        <mxCell id="8kvsp9JrE4OR5qHueXJZ-50" value="" style="pointerEvents=1;verticalLabelPosition=bottom;shadow=0;dashed=0;align=center;html=1;verticalAlign=top;shape=mxgraph.electrical.miscellaneous.permanent_magnet;rotation=45;" vertex="1" parent="1">
          <mxGeometry x="920" y="747.5" width="20" height="105" as="geometry" />
        </mxCell>
        <mxCell id="8kvsp9JrE4OR5qHueXJZ-51" value="&lt;font style=&quot;font-size: 40px;&quot;&gt;$${W}$$&lt;/font&gt;" style="text;html=1;strokeColor=none;fillColor=none;align=center;verticalAlign=middle;whiteSpace=wrap;rounded=0;" vertex="1" parent="1">
          <mxGeometry x="1252.5" y="847.5" width="130" height="30" as="geometry" />
        </mxCell>
        <mxCell id="8kvsp9JrE4OR5qHueXJZ-52" value="&lt;font style=&quot;font-size: 40px;&quot;&gt;$${L}$$&lt;/font&gt;" style="text;html=1;strokeColor=none;fillColor=none;align=center;verticalAlign=middle;whiteSpace=wrap;rounded=0;" vertex="1" parent="1">
          <mxGeometry x="1140" y="625" width="70" height="30" as="geometry" />
        </mxCell>
        <mxCell id="8kvsp9JrE4OR5qHueXJZ-53" value="&lt;font style=&quot;font-size: 40px;&quot;&gt;$${c}$$&lt;/font&gt;" style="text;html=1;strokeColor=none;fillColor=none;align=center;verticalAlign=middle;whiteSpace=wrap;rounded=0;" vertex="1" parent="1">
          <mxGeometry x="1475" y="805" width="80" height="30" as="geometry" />
        </mxCell>
        <mxCell id="8kvsp9JrE4OR5qHueXJZ-54" value="" style="pointerEvents=1;verticalLabelPosition=bottom;shadow=0;dashed=0;align=center;html=1;verticalAlign=top;shape=mxgraph.electrical.miscellaneous.permanent_magnet;rotation=45;" vertex="1" parent="1">
          <mxGeometry x="1475" y="747.5" width="20" height="105" as="geometry" />
        </mxCell>
        <mxCell id="8kvsp9JrE4OR5qHueXJZ-55" value="&lt;font style=&quot;font-size: 40px;&quot;&gt;$${O}$$&lt;/font&gt;" style="text;html=1;strokeColor=none;fillColor=none;align=center;verticalAlign=middle;whiteSpace=wrap;rounded=0;" vertex="1" parent="1">
          <mxGeometry x="1272.5" y="702.5" width="70" height="30" as="geometry" />
        </mxCell>
      </root>
    </mxGraphModel>
  </diagram>
</mxfile>
